<mxfile host="65bd71144e" modified="2020-11-17T00:37:58.343Z" agent="5.0 (Windows NT 10.0; Win64; x64) AppleWebKit/537.36 (KHTML, like Gecko) Code/1.51.1 Chrome/83.0.4103.122 Electron/9.3.3 Safari/537.36" version="13.6.5" etag="tffcBYpEvrHjIhFWu0g8">
    <diagram id="ezwM_6KYUdO-rWmVmcjm" name="Page-1">
        <mxGraphModel dx="1476" dy="1143" grid="1" gridSize="10" guides="1" tooltips="1" connect="1" arrows="1" fold="1" page="1" pageScale="1" pageWidth="827" pageHeight="1169" math="0" shadow="0">
            <root>
                <mxCell id="0"/>
                <mxCell id="1" parent="0"/>
                <mxCell id="2" value="JUGADOR:&lt;br&gt;&lt;br&gt;&lt;div style=&quot;text-align: left&quot;&gt;&lt;span&gt;- Carrito Compras&lt;/span&gt;&lt;/div&gt;&lt;div style=&quot;text-align: left&quot;&gt;&lt;span&gt;- Ambulancia&lt;/span&gt;&lt;/div&gt;&lt;div style=&quot;text-align: left&quot;&gt;&lt;span&gt;- Taxi&lt;/span&gt;&lt;/div&gt;&lt;div style=&quot;text-align: left&quot;&gt;&lt;span&gt;- Moto&lt;/span&gt;&lt;/div&gt;" style="rounded=0;whiteSpace=wrap;html=1;" vertex="1" parent="1">
                    <mxGeometry x="20" y="15" width="130" height="130" as="geometry"/>
                </mxCell>
                <mxCell id="3" value="Enemigos:&lt;br&gt;&lt;br&gt;&lt;div style=&quot;text-align: left&quot;&gt;&lt;span&gt;- Anciana&lt;/span&gt;&lt;/div&gt;&lt;div style=&quot;text-align: left&quot;&gt;&lt;span&gt;- Hueco&lt;/span&gt;&lt;/div&gt;&lt;div style=&quot;text-align: left&quot;&gt;&lt;span&gt;- Junior&lt;/span&gt;&lt;/div&gt;&lt;div style=&quot;text-align: left&quot;&gt;&lt;span&gt;- Patrulla&lt;/span&gt;&lt;/div&gt;&lt;div style=&quot;text-align: left&quot;&gt;&lt;span&gt;- Carro&lt;/span&gt;&lt;/div&gt;" style="rounded=0;whiteSpace=wrap;html=1;" vertex="1" parent="1">
                    <mxGeometry x="172" y="10" width="130" height="140" as="geometry"/>
                </mxCell>
                <mxCell id="5" value="Escenario:&lt;br&gt;&lt;br&gt;&lt;div style=&quot;text-align: left&quot;&gt;&lt;span&gt;- Bogota&lt;/span&gt;&lt;/div&gt;" style="rounded=0;whiteSpace=wrap;html=1;" vertex="1" parent="1">
                    <mxGeometry x="325" y="12" width="111" height="80" as="geometry"/>
                </mxCell>
                <mxCell id="6" value="Gasolina:&lt;br&gt;&lt;br&gt;&lt;div style=&quot;text-align: left&quot;&gt;&lt;span&gt;- Galon&lt;/span&gt;&lt;/div&gt;" style="rounded=0;whiteSpace=wrap;html=1;" vertex="1" parent="1">
                    <mxGeometry x="454" y="12" width="111" height="80" as="geometry"/>
                </mxCell>
                <mxCell id="7" value="Carriles:&lt;br&gt;&lt;br&gt;&lt;div style=&quot;text-align: left&quot;&gt;&lt;span&gt;- 4&lt;/span&gt;&lt;/div&gt;" style="rounded=0;whiteSpace=wrap;html=1;" vertex="1" parent="1">
                    <mxGeometry x="582" y="12" width="111" height="80" as="geometry"/>
                </mxCell>
                <mxCell id="8" value="Puntuacion:&lt;br&gt;&lt;br&gt;&lt;div style=&quot;text-align: left&quot;&gt;- al pasar&lt;/div&gt;" style="rounded=0;whiteSpace=wrap;html=1;" vertex="1" parent="1">
                    <mxGeometry x="710" y="12" width="111" height="80" as="geometry"/>
                </mxCell>
                <mxCell id="9" value="Final.txt :&lt;br&gt;&lt;br&gt;&lt;div style=&quot;text-align: left&quot;&gt;- Nombre J&lt;/div&gt;&lt;div style=&quot;text-align: left&quot;&gt;- Puntaje&lt;/div&gt;&lt;div style=&quot;text-align: left&quot;&gt;- Fecha&lt;/div&gt;" style="rounded=0;whiteSpace=wrap;html=1;" vertex="1" parent="1">
                    <mxGeometry x="325" y="110" width="111" height="100" as="geometry"/>
                </mxCell>
                <mxCell id="10" value="Menu :&lt;br&gt;&lt;br&gt;&lt;div style=&quot;text-align: left&quot;&gt;- Inicio&lt;/div&gt;&lt;div style=&quot;text-align: left&quot;&gt;- Informacion&lt;/div&gt;&lt;div style=&quot;text-align: left&quot;&gt;- Salir&lt;/div&gt;" style="rounded=0;whiteSpace=wrap;html=1;" vertex="1" parent="1">
                    <mxGeometry x="454" y="110" width="111" height="100" as="geometry"/>
                </mxCell>
            </root>
        </mxGraphModel>
    </diagram>
</mxfile>